Coordinates
version=1
nRows=29
nColumns=24
inDegrees=yes

Units are S.I. units (second, meters, Newtons, ...)
Angles are in degrees.

endheader
time	pelvis_tilt	pelvis_list	pelvis_rotation	pelvis_tx	pelvis_ty	pelvis_tz	hip_flexion_r	hip_adduction_r	hip_rotation_r	knee_angle_r	ankle_angle_r	subtalar_angle_r	mtp_angle_r	hip_flexion_l	hip_adduction_l	hip_rotation_l	knee_angle_l	ankle_angle_l	subtalar_angle_l	mtp_angle_l	lumbar_extension	lumbar_bending	lumbar_rotation
      0.46200000	     -1.53655536	      4.77496845	      1.52353472	     -0.77732711	      0.97996344	      0.27817029	     29.67656129	     -3.07047135	     -3.18322171	    -17.33935387	      8.24417522	     -4.14839711	      1.09871651	    -13.97546778	      8.68213061	      2.44211993	     -4.56387422	     10.91031991	     -3.91308914	      0.03508421	     -1.78885337	     -2.29414575	     -0.91581497
      0.46616667	     -1.55385298	      4.75184625	      1.54136444	     -0.77153508	      0.97932834	      0.27848013	     29.57573264	     -2.99971059	     -3.28155175	    -17.18247169	      8.02508078	     -4.14536450	      1.34460491	    -13.92635546	      8.61762962	      2.23910557	     -5.32570913	     11.13052680	     -3.51365445	      0.01396131	     -1.74832655	     -2.25955910	     -1.00046121
      0.47033333	     -1.56143194	      4.74370944	      1.56911327	     -0.76571542	      0.97875047	      0.27873390	     29.46060471	     -2.95356435	     -3.37188813	    -17.10737708	      7.83094463	     -4.19779637	      1.41612517	    -13.91403580	      8.58167338	      2.28066771	     -6.03892414	     11.25318664	     -3.52443404	      0.01795437	     -1.71062388	     -2.23974719	     -0.99615744
      0.47450000	     -1.60672209	      4.70328725	      1.58287049	     -0.75986029	      0.97817430	      0.27909392	     29.35812281	     -2.84593403	     -3.35026303	    -17.04709304	      7.55019863	     -4.43594465	      1.70069473	    -13.76384086	      8.49385757	      2.04118965	     -6.93111551	     11.41811633	     -3.06796258	      0.06531048	     -1.62120897	     -2.20102481	     -1.10905070
      0.47866667	     -1.61378741	      4.67526976	      1.58842114	     -0.75399290	      0.97768200	      0.27940444	     29.23476409	     -2.76281629	     -3.36796887	    -17.09678191	      7.25055129	     -4.63078727	      2.05363114	    -13.65397305	      8.43125476	      1.92118787	     -7.82628799	     11.51504667	     -2.85483931	      0.16310772	     -1.59197001	     -2.14561452	     -1.13918286
      0.48283333	     -1.63694434	      4.64457080	      1.60203850	     -0.74808835	      0.97721774	      0.27970824	     29.11923852	     -2.68085954	     -3.37166085	    -17.19593559	      6.93529404	     -4.82346757	      2.37646549	    -13.49158187	      8.36591968	      1.82791343	     -8.78249338	     11.56644951	     -2.68578865	      0.29950764	     -1.53034845	     -2.09979623	     -1.17190163
      0.48700000	     -1.65856499	      4.61993133	      1.63345857	     -0.74217101	      0.97681653	      0.27998068	     28.98732578	     -2.61596534	     -3.37867718	    -17.32401429	      6.58197626	     -4.96100360	      2.55999902	    -13.30974403	      8.30776853	      1.81681881	     -9.78315970	     11.56420776	     -2.60357656	      0.40775807	     -1.46784613	     -2.06491658	     -1.17146009
      0.49116667	     -1.67826594	      4.57632709	      1.61549633	     -0.73621542	      0.97643279	      0.28034251	     28.87568871	     -2.50451030	     -3.32032621	    -17.54864803	      6.26989104	     -5.26956083	      2.87099053	    -13.07077666	      8.22632767	      1.60793595	    -10.88580076	     11.55403796	     -2.33842316	      0.63833062	     -1.40705522	     -1.98954012	     -1.20926880
      0.49533333	     -1.66619831	      4.51839970	      1.62905442	     -0.73025530	      0.97614270	      0.28067412	     28.70800175	     -2.39333347	     -3.27909440	    -17.78142624	      5.95140822	     -5.62449296	      3.45672705	    -12.82612964	      8.12212157	      1.47374716	    -12.06896403	     11.56021667	     -2.09838170	      1.17091904	     -1.38837373	     -1.90745307	     -1.19133649
      0.49950000	     -1.73171184	      4.49412185	      1.61182240	     -0.72429295	      0.97577070	      0.28101701	     28.65508223	     -2.30985654	     -3.20621040	    -18.09799175	      5.58973918	     -5.81139379	      3.76341940	    -12.46737340	      8.06986723	      1.33723466	    -13.29279977	     11.38579940	     -2.00817934	      1.52556201	     -1.26600563	     -1.86374524	     -1.19277018
      0.50366667	     -1.71098454	      4.42449200	      1.61528746	     -0.71827084	      0.97559228	      0.28130319	     28.48595734	     -2.20422150	     -3.22540623	    -18.41095502	      5.16822704	     -5.91399165	      3.85170366	    -12.18821339	      7.96994367	      1.29351948	    -14.53708297	     11.15327111	     -2.03161570	      1.65797163	     -1.25158709	     -1.74008946	     -1.14995878
      0.50783333	     -1.72937079	      4.35803277	      1.58154130	     -0.71231976	      0.97534286	      0.28177021	     28.36421188	     -2.04887565	     -3.04177603	    -18.75438693	      4.92075046	     -6.39173283	      4.14773606	    -11.74735882	      7.84099533	      0.96339537	    -16.00036526	     11.01417397	     -1.64693339	      2.17786489	     -1.18672282	     -1.66455639	     -1.13539442
      0.51200000	     -1.77089854	      4.28762003	      1.57396151	     -0.70632336	      0.97514389	      0.28213616	     28.25857182	     -1.92259311	     -2.95419920	    -19.09568891	      4.51111722	     -6.71281444	      6.49699875	    -11.28668702	      7.72574929	      0.81524037	    -17.42617878	     10.56766140	     -1.68735430	      7.17053735	     -1.08607206	     -1.56376593	     -1.04635119
      0.51616667	     -1.79729442	      4.19901461	      1.57335334	     -0.70035496	      0.97498230	      0.28251433	     28.14586029	     -1.78546571	     -2.89764279	    -19.47725056	      4.20022525	     -6.84619620	      6.49658309	    -10.76855242	      7.57769949	      0.61698911	    -18.99634028	     10.22844382	     -1.53367752	      7.22686638	     -1.00743381	     -1.44858506	     -1.01700751
      0.52033333	     -1.81729856	      4.09705913	      1.53772509	     -0.69442028	      0.97481878	      0.28298301	     28.04747498	     -1.60776818	     -2.76866505	    -19.91303923	      3.96003677	     -7.21612452	      6.49375791	    -10.20114156	      7.40345373	      0.31894810	    -20.64931837	      9.85353171	     -1.29760832	      7.39551925	     -0.95147978	     -1.31159382	     -0.95352659
      0.52450000	     -1.80723895	      3.93138423	      1.50167956	     -0.68845759	      0.97476868	      0.28349973	     27.86707151	     -1.34970914	     -2.58893683	    -20.26168469	      3.72781327	     -7.65833276	      6.47679735	     -9.62286988	      7.14647677	     -0.00433415	    -22.36318042	      9.36667056	     -1.10051518	      7.92084626	     -0.91924152	     -1.09963445	     -0.87178587
      0.52866667	     -1.84679363	      3.80681613	      1.49489247	     -0.68256899	      0.97463526	      0.28396066	     27.78708285	     -1.16476723	     -2.49830900	    -20.71457679	      3.58387381	     -7.95945609	      6.45104568	     -8.93490754	      6.92787596	     -0.27420797	    -24.16286337	      8.79313540	     -0.88905837	      8.43065648	     -0.83578603	     -0.95183397	     -0.77633062
      0.53283333	     -1.88680405	      3.66641485	      1.45463979	     -0.67670890	      0.97449499	      0.28445091	     27.71814622	     -0.95452533	     -2.39659221	    -21.17605152	      3.37952184	     -8.11771590	      6.43009027	     -8.20679315	      6.69712975	     -0.56295837	    -26.01725908	      8.17806842	     -0.81763093	      8.72816449	     -0.75663807	     -0.77354885	     -0.68243295
      0.53700000	     -1.83371041	      3.42112379	      1.39868368	     -0.67080567	      0.97456784	      0.28508768	     27.46943350	     -0.58789779	     -2.15889071	    -21.49907286	      3.28064925	     -8.71927958	      6.31422257	     -7.53883352	      6.31241260	     -0.96053453	    -27.91366873	      7.44289068	     -0.65235041	      9.94802377	     -0.78240063	     -0.47635545	     -0.57115251
      0.54116667	     -1.87695974	      3.25540448	      1.39014824	     -0.66500816	      0.97444991	      0.28556190	     27.40655402	     -0.37275226	     -2.13084177	    -21.98374670	      3.23745380	     -8.76162391	      5.77448104	     -6.71995318	      6.02620643	     -1.22503520	    -29.86808781	      6.56121202	     -0.64821222	     14.57839524	     -0.70123154	     -0.28293177	     -0.45713493
      0.54533333	     -1.87953292	      3.03847624	      1.35988328	     -0.65921194	      0.97442576	      0.28611544	     27.26763080	     -0.07862084	     -2.03668402	    -22.40630369	      3.22604357	     -8.98919251	      5.75972528	     -5.90984528	      5.66407737	     -1.54769748	    -31.86576403	      5.69214077	     -0.52105033	     14.64111573	     -0.66929751	     -0.02610173	     -0.34283039
      0.54950000	     -1.86412092	      2.78800256	      1.31747684	     -0.65343919	      0.97442959	      0.28669810	     27.09097166	      0.25761137	     -1.93408017	    -22.78800610	      3.25532748	     -9.15283024	      5.74138286	     -5.08731219	      5.25569931	     -1.88048805	    -33.90238545	      4.77808000	     -0.49508584	     14.71342009	     -0.65698291	      0.26315384	     -0.22827035
      0.55366667	     -1.85743983	      2.51788302	      1.27286600	     -0.64771857	      0.97441448	      0.28729722	     26.93374890	      0.61816765	     -1.83331959	    -23.19261660	      3.31342063	     -9.42766219	      5.70631419	     -4.22467627	      4.81497169	     -2.20330018	    -35.96420776	      3.81077318	     -0.43543052	     14.82356910	     -0.64875517	      0.58941664	     -0.09911266
      0.55783333	     -1.84327849	      2.23976559	      1.23127365	     -0.64202132	      0.97443070	      0.28790404	     26.74970766	      0.98604285	     -1.74015300	    -23.55918069	      3.41957710	     -9.66520043	      5.65960180	     -3.34877003	      4.35583322	     -2.50902694	    -38.02968640	      2.77657557	     -0.43121724	     14.94616865	     -0.64757851	      0.91672840	      0.03541568
      0.56200000	     -1.80010039	      1.93596022	      1.18785320	     -0.63634412	      0.97450178	      0.28852088	     26.51394784	      1.38089236	     -1.66257760	    -23.88446639	      3.55994333	     -9.87247821	      5.60391977	     -2.48709409	      3.85682590	     -2.80773989	    -40.09596764	      1.70198254	     -0.46446629	     15.06314885	     -0.67923240	      1.25848681	      0.17035436
      0.56616667	     -1.76087040	      1.63228523	      1.14384673	     -0.63071845	      0.97457355	      0.28911135	     26.28328028	      1.77159481	     -1.59746255	    -24.21055890	      3.72608265	    -10.06483710	      5.53525881	     -1.60736454	      3.36126733	     -3.06299087	    -42.14527185	      0.59113459	     -0.52830011	     15.16986477	     -0.72430724	      1.62315557	      0.31210616
      0.57033333	     -1.71753923	      1.32627201	      1.09839087	     -0.62510170	      0.97467747	      0.28969517	     26.02495821	      2.16037927	     -1.55649584	    -24.48839661	      3.93113766	    -10.17525674	      5.47369355	     -0.72482293	      2.85807333	     -3.30716592	    -44.17122355	     -0.51635497	     -0.65691063	     15.22808709	     -0.76701809	      1.97442958	      0.44496671
      0.57450000	     -1.67978142	      1.01342752	      1.05151824	     -0.61953198	      0.97477440	      0.29028441	     25.76948771	      2.55733369	     -1.52014984	    -24.75978451	      4.15067686	    -10.30201027	      5.40139761	      0.17379847	      2.34521741	     -3.52169039	    -46.17422009	     -1.61805206	     -0.79448568	     15.25099053	     -0.80768203	      2.33036139	      0.59100377
      0.57866667	     -1.64509824	      0.70604528	      1.00742248	     -0.61398139	      0.97490430	      0.29085974	     25.49557222	      2.94490327	     -1.49679658	    -24.98732214	      4.38962294	    -10.40236332	      5.31971405	      1.07970671	      1.83735917	     -3.71129061	    -48.13536826	     -2.70516705	     -0.95887332	     15.22338785	     -0.84496380	      2.67829043	      0.73816211
